<?xml version="1.0" encoding="UTF-8" standalone="no"?>
<!-- Created with Inkscape (http://www.inkscape.org/) -->

<svg
   width="34"
   height="56"
   viewBox="0 0 34 56"
   version="1.1"
   id="svg1"
   xml:space="preserve"
   xmlns="http://www.w3.org/2000/svg"
   xmlns:svg="http://www.w3.org/2000/svg"><defs
     id="defs1"><style
       id="style1">
      .cls-1 {
        fill: #d6d6d6;
      }

      .cls-1, .cls-2, .cls-3, .cls-4, .cls-5 {
        stroke-width: 0px;
      }

      .cls-2 {
        fill: #dbdbdb;
      }

      .cls-3 {
        fill: #edf4f4;
      }

      .cls-4 {
        fill: #e3e3e3;
      }

      .cls-5 {
        fill: #ebebeb;
      }
    </style></defs><g
     id="layer1"><g
       id="Up"
       transform="matrix(0.99038742,0,0,1.0121655,0,0.0070027)"><g
         id="g2"><path
           class="cls-5"
           d="M 4.1,41.56 V 7.34 c 0,0 0,-0.09 0,-0.14 L 4.18,7.01 4.26,6.88 c 0.49,-0.81 2.1,-1.52 4.53,-2 L 9.67,4.67 C 10,4.6 10.33,4.55 10.67,4.53 h 0.16 l 0.84,-0.14 1,-0.1 1,-0.09 2.37,-0.07 h 1 c 7.32,0 13.06,1.42 13.06,3.23 v 34.2 L 17.16,54.61 Z"
           id="path1"
           style="fill:#000000" /><path
           class="cls-3"
           d="m 17.16,4.61 c 8.09,0 12.57,1.62 12.57,2.73 v 34 L 17.16,53.91 4.6,41.35 v -34 0 -0.14 0 C 4.76,6.96 5.51,6.1 8.79,5.45 H 8.85 L 9.68,5.28 H 9.77 C 10.1,5.22 10.36,5.19 10.56,5.17 h 0.19 l 0.92,-0.12 v 0 l 1,-0.11 v 0 l 1,-0.08 h 3.38 m 0,-1 h -3.38 l -1,0.09 v 0 l -1,0.11 v 0 l -1,-0.05 h -0.06 c -0.32,0 -0.64,0.08 -0.94,0.13 H 9.6 C 9.3,4.14 9,4.25 8.72,4.32 v 0 C 6.3,4.79 4.47,5.53 3.86,6.54 3.81,6.59 3.78,6.65 3.75,6.71 v 0 0.18 c 0,0.06 0,0 0,0 v 0.15 c 0,0.07 0,0.14 0,0.21 V 41.77 L 17.16,55.32 30.73,41.77 v -34.43 0 c 0,-2.5 -6.8,-3.73 -13.57,-3.73 z"
           id="path2"
           style="fill:#666666" /></g><path
         class="cls-2"
         d="m 8.67,4.36 v 0 L 9.55,4.17 h 0.12 c 0.3,-0.05 0.62,-0.1 0.94,-0.13 h 0.06 l 1,-0.13 v 0 l 1,-0.11 v 0 l 1,-0.08 h 3.49 c 6.77,0 13.56,1.23 13.56,3.73 L 33.47,4.68 C 32.58,3.2 30.77,1.86 27.34,1.01 24,0.28 20.58,-0.05 17.16,0 13.74,-0.06 10.32,0.27 6.98,1 4.05,1.71 2.27,2.79 1.26,4 L 3.83,6.57 C 4.45,5.56 6.27,4.82 8.67,4.35 Z"
         id="path3"
         style="fill:#333333" /><path
         class="cls-4"
         d="m 30.73,7.34 v 0 34.43 l 3.6,-3.63 V 7.34 c 0,-0.99 -0.3,-1.95 -0.85,-2.77 z"
         id="path4"
         style="fill:#333333" /><path
         class="cls-1"
         d="M 3.6,7.34 C 3.6,7.27 3.6,7.2 3.6,7.13 3.62,7.09 3.64,7.05 3.67,7.01 v 0 -0.18 0 C 3.69,6.77 3.73,6.72 3.77,6.67 L 1.26,4.01 C 0.44,4.92 0,6.11 0,7.34 v 30.81 l 3.6,3.62 z"
         id="path5"
         style="fill:#333333" /></g></g></svg>
