<?xml version="1.0" encoding="UTF-8" standalone="no"?>
<!-- Created with Inkscape (http://www.inkscape.org/) -->

<svg
   width="170"
   height="61"
   viewBox="0 0 170 61"
   version="1.1"
   id="svg1"
   xml:space="preserve"
   xmlns="http://www.w3.org/2000/svg"
   xmlns:svg="http://www.w3.org/2000/svg"><defs
     id="defs1"><style
       id="style1">
      .cls-1 {
        fill: #f2f2f2;
      }

      .cls-2 {
        fill: #e5e5e5;
      }

      .cls-3 {
        fill: #fff;
      }
    </style></defs><g
     id="layer1"><g
       id="LB_Pressed"
       data-name="LB Pressed"
       transform="matrix(0.99328075,0,0,0.98632427,0,-3.4338716e-4)"><path
         class="cls-1"
         d="M 134.22,0.76 C 92,-4.86 38.28,22.22 20,32.13 19.73,32.3 19.44,32.45 19.17,32.6 a 2.72,2.72 0 0 1 -0.25,0.16 c -0.18,0.09 -0.35,0.2 -0.53,0.31 a 1.57,1.57 0 0 1 -0.29,0.16 4.4,4.4 0 0 1 -0.45,0.3 l -0.29,0.18 a 3,3 0 0 1 -0.42,0.27 l -0.27,0.21 -0.4,0.27 -0.25,0.19 a 3.37,3.37 0 0 0 -0.37,0.29 1.56,1.56 0 0 0 -0.25,0.17 L 15,35.4 14.78,35.59 c -0.12,0.1 -0.23,0.18 -0.35,0.29 a 1.8,1.8 0 0 0 -0.2,0.19 2.28,2.28 0 0 0 -0.34,0.29 0.9,0.9 0 0 1 -0.18,0.16 L 13.38,36.84 13.21,37 a 2.48,2.48 0 0 1 -0.32,0.33 1.58,1.58 0 0 0 -0.12,0.15 2.73,2.73 0 0 0 -0.33,0.35 0.63,0.63 0 0 1 -0.11,0.12 c -0.11,0.12 -0.22,0.26 -0.31,0.37 l -0.1,0.1 -0.31,0.41 -0.07,0.08 a 5.15,5.15 0 0 0 -0.32,0.45 c 0,0 0,0 0,0 0,0 -0.22,0.33 -0.33,0.47 -0.11,0.14 97.69,-42 122,-34.38 15.53,4.87 27.22,15.33 32.8,18.23 l 3.42,-6.35 C 156.69,13.78 142.07,1.8 134.22,0.76 Z"
         id="path1"
         style="fill:#000000" /><g
         id="g4"><path
           class="cls-2"
           d="m 166.17,24 0.46,0.19 z"
           id="path2"
           style="fill:#000000" /><path
           class="cls-2"
           d="M 165.69,23.72 C 160.11,20.84 148.43,10.36 132.88,5.49 108.67,-2.07 11.57,39.58 10.9,39.86 5.9,47.3 8.69,55.19 0.06,62.86 H 0 C 33.16,45 99.17,24.75 118.75,28.53 c 9.12,1.76 19.9,12.09 31.08,24.76 l 15.85,-29.58 z"
           id="path3"
           style="fill:#000000" /><path
           class="cls-3"
           d="m 165.69,23.72 0.48,0.25 z"
           id="path4"
           style="fill:#000000" /></g><path
         class="cls-3"
         d="m 150.55,54.1 c 0.24,0.3 0.47,0.57 0.73,0.84 l 16.38,-30.54 3.49,-6.53 c -0.34,-0.07 -0.68,-0.13 -1,-0.23 -0.32,-0.1 -0.68,-0.19 -1,-0.27 l -3.42,6.34 -15.9,29.59 0.72,0.8 v 0"
         id="path5"
         style="fill:#000000" /></g><path
       style="fill:#000000;stroke-width:0.338338"
       d="M 3.0095703,59.10539 C 4.7562351,56.973815 6.0789799,53.877324 7.4456542,48.720692 9.0953985,42.496005 10.401745,39.706201 11.985861,39.02473 16.356806,37.144396 35.291047,29.658879 42.630606,26.909551 83.196026,11.714134 111.27598,4.2617197 125.84927,4.8233351 c 3.97683,0.1532563 4.76052,0.2928082 7.96347,1.4180538 4.29956,1.5105079 10.16818,4.2785651 14.14758,6.6730061 5.62874,3.386858 16.13295,10.531871 16.02904,10.903024 -0.0575,0.205567 -3.47704,6.63311 -7.59886,14.283429 l -7.49422,13.909669 -7.28802,-7.350978 C 129.56089,32.508089 123.59523,28.605706 115.7248,27.728101 97.368043,25.681201 44.024163,40.7035 6.4662079,58.496675 c -2.3983372,1.136218 -4.4258715,2.065852 -4.5056321,2.065852 -0.079761,0 0.3922869,-0.655712 1.0489945,-1.457137 z"
       id="path6" /><path
       style="fill:#000000;stroke-width:0.338338"
       d="m 13.207906,36.854744 c 2.634178,-2.691967 5.886911,-4.666389 15.97791,-9.698648 C 60.136462,11.721381 86.451553,3.1976321 110.97491,0.66370569 c 4.41348,-0.45603225 16.06396,-0.45650474 20.0434,-8.129e-4 4.97368,0.56954481 7.64659,1.67934541 17.1738,7.13062351 8.46002,4.8406577 14.02386,7.5571677 19.05591,9.3039367 0.3246,0.112679 0.0558,0.874954 -0.97971,2.778655 -0.78486,1.442858 -1.54968,2.760603 -1.69961,2.928322 -0.15349,0.17172 -2.90346,-1.468615 -6.29456,-3.754655 C 147.42391,11.735303 141.52793,8.5234125 134.15107,5.908491 130.85876,4.7414443 130.25004,4.6370298 125.84136,4.483112 116.86862,4.1698522 105.15235,6.2902251 86.783734,11.551633 70.068967,16.339322 42.740283,26.088303 19.03519,35.71962 c -3.859266,1.568011 -7.126964,2.850928 -7.261552,2.850928 -0.134587,0 0.510834,-0.772111 1.434268,-1.715804 z"
       id="path7" /><path
       style="fill:#000000;stroke-width:0.338338"
       d=""
       id="path8" /><path
       style="fill:#000000;stroke-width:0.338338"
       d="m 149.6064,53.186431 c -0.52225,-0.577083 0.01,-1.657857 8.96803,-18.214639 8.80815,-16.279542 9.5825,-17.589823 10.31268,-17.450239 0.43421,0.083 0.78947,0.187579 0.78947,0.232391 0,0.102159 -19.30703,35.838019 -19.42709,35.958075 -0.0483,0.04834 -0.33773,-0.188173 -0.64309,-0.525588 z"
       id="path9" /></g></svg>
