<?xml version="1.0" encoding="UTF-8" standalone="no"?>
<!-- Created with Inkscape (http://www.inkscape.org/) -->

<svg
   width="170"
   height="61"
   viewBox="0 0 170 61"
   version="1.1"
   id="svg1"
   xml:space="preserve"
   xmlns="http://www.w3.org/2000/svg"
   xmlns:svg="http://www.w3.org/2000/svg"><defs
     id="defs1"><style
       id="style1">
      .cls-1 {
        fill: #f2f2f2;
      }

      .cls-2 {
        fill: #e5e5e5;
      }

      .cls-3 {
        fill: #fff;
      }
    </style></defs><g
     id="layer1"><g
       id="LB_Pressed"
       data-name="LB Pressed"
       transform="matrix(-0.99328075,0,0,0.97041581,170,-3.3784866e-4)"><path
         class="cls-1"
         d="M 134.22,0.76 C 92,-4.86 38.28,22.22 20,32.13 19.73,32.3 19.44,32.45 19.17,32.6 a 2.72,2.72 0 0 1 -0.25,0.16 c -0.18,0.09 -0.35,0.2 -0.53,0.31 a 1.57,1.57 0 0 1 -0.29,0.16 4.4,4.4 0 0 1 -0.45,0.3 l -0.29,0.18 a 3,3 0 0 1 -0.42,0.27 l -0.27,0.21 -0.4,0.27 -0.25,0.19 a 3.37,3.37 0 0 0 -0.37,0.29 1.56,1.56 0 0 0 -0.25,0.17 L 15,35.4 14.78,35.59 c -0.12,0.1 -0.23,0.18 -0.35,0.29 a 1.8,1.8 0 0 0 -0.2,0.19 2.28,2.28 0 0 0 -0.34,0.29 0.9,0.9 0 0 1 -0.18,0.16 L 13.38,36.84 13.21,37 a 2.48,2.48 0 0 1 -0.32,0.33 1.58,1.58 0 0 0 -0.12,0.15 2.73,2.73 0 0 0 -0.33,0.35 0.63,0.63 0 0 1 -0.11,0.12 c -0.11,0.12 -0.22,0.26 -0.31,0.37 l -0.1,0.1 -0.31,0.41 -0.07,0.08 a 5.15,5.15 0 0 0 -0.32,0.45 c 0,0 0,0 0,0 0,0 -0.22,0.33 -0.33,0.47 -0.11,0.14 97.69,-42 122,-34.38 15.53,4.87 27.22,15.33 32.8,18.23 l 3.42,-6.35 C 156.69,13.78 142.07,1.8 134.22,0.76 Z"
         id="path1"
         style="fill:#000000" /><g
         id="g4"><path
           class="cls-2"
           d="m 166.17,24 0.46,0.19 z"
           id="path2"
           style="fill:#000000" /><path
           class="cls-2"
           d="M 165.69,23.72 C 160.11,20.84 148.43,10.36 132.88,5.49 108.67,-2.07 11.57,39.58 10.9,39.86 5.9,47.3 8.69,55.19 0.06,62.86 H 0 C 33.16,45 99.17,24.75 118.75,28.53 c 9.12,1.76 19.9,12.09 31.08,24.76 l 15.85,-29.58 z"
           id="path3"
           style="fill:#000000" /><path
           class="cls-3"
           d="m 165.69,23.72 0.48,0.25 z"
           id="path4"
           style="fill:#000000" /></g><path
         class="cls-3"
         d="m 150.55,54.1 c 0.24,0.3 0.47,0.57 0.73,0.84 l 16.38,-30.54 3.49,-6.53 c -0.34,-0.07 -0.68,-0.13 -1,-0.23 -0.32,-0.1 -0.68,-0.19 -1,-0.27 l -3.42,6.34 -15.9,29.59 0.72,0.8 v 0"
         id="path5"
         style="fill:#000000" /></g><path
       style="fill:#000000;stroke-width:0.335598"
       d="m 166.99042,58.152077 c -1.74666,-2.097195 -3.06941,-5.143742 -4.43608,-10.217203 -1.64974,-6.124289 -2.95609,-8.869096 -4.5402,-9.539575 C 153.64319,36.545293 134.70895,29.18051 127.36939,26.475526 86.803971,11.525196 58.724023,4.1929823 44.150734,4.7455394 40.1739,4.8963238 39.390215,5.0336248 36.187264,6.1407213 31.887706,7.6268662 26.019085,10.350277 22.039682,12.706098 16.41094,16.03833 5.9067297,23.0681 6.0106469,23.433267 c 0.057475,0.202251 3.4770392,6.526124 7.5988581,14.053051 l 7.494214,13.68532 7.288022,-7.232414 C 40.439111,31.983765 46.40477,28.144324 54.275197,27.280873 72.631953,25.266988 125.97584,40.046992 163.53379,57.55318 c 2.39834,1.117892 4.42587,2.032532 4.50563,2.032532 0.0798,0 -0.39229,-0.645136 -1.049,-1.433635 z"
       id="path6" /><path
       style="fill:#000000;stroke-width:0.335598"
       d="M 156.79209,36.260313 C 154.15791,33.611764 150.90518,31.669188 140.81418,26.718094 109.86353,11.532326 83.548446,3.1460574 59.025087,0.65300072 54.611612,0.20432386 42.961133,0.20385899 38.981691,0.65220093 34.008014,1.2125596 31.335101,2.3044602 21.807893,7.6678144 13.347877,12.430397 7.7840302,15.103092 2.7519826,16.821688 c -0.3246047,0.110861 -0.055802,0.860841 0.9797093,2.733838 0.784856,1.419586 1.5496843,2.716077 1.6996109,2.881091 0.1534892,0.16895 2.903462,-1.444928 6.2945642,-3.694097 C 22.576088,11.546024 28.472068,8.3859381 35.84893,5.8131927 c 3.292313,-1.1482233 3.901034,-1.2509537 8.309707,-1.402389 8.972742,-0.3082072 20.689012,1.7779661 39.057627,6.9545123 16.714765,4.710468 44.043446,14.302208 67.748536,23.778181 3.85927,1.54272 7.12697,2.804945 7.26156,2.804945 0.13458,0 -0.51084,-0.759657 -1.43427,-1.688129 z"
       id="path7" /><path
       style="fill:#000000;stroke-width:0.338338"
       d=""
       id="path8" /><path
       style="fill:#000000;stroke-width:0.335598"
       d="M 20.3936,52.328585 C 20.915853,51.76081 20.383561,50.697468 11.425571,34.407731 2.6174187,18.390762 1.8430736,17.101615 1.1128975,17.238947 c -0.4342104,0.08166 -0.78947165,0.184554 -0.78947165,0.228643 0,0.100511 19.30702815,35.259986 19.42708615,35.378106 0.04832,0.04756 0.337733,-0.185138 0.643088,-0.517111 z"
       id="path9" /></g></svg>
